HIERARCHY
ROOT Hips
{
  OFFSET 2.26061 22.2878 23.7974
  CHANNELS 6 Xposition Yposition Zposition Zrotation Xrotation Yrotation
  JOINT LeftUpLeg
  {
    OFFSET 8.64259 1.95398 -2.38835
    CHANNELS 3 Zrotation Xrotation Yrotation
    JOINT LeftLeg
    {
      OFFSET 43.7702 0 0
      CHANNELS 3 Zrotation Xrotation Yrotation
      JOINT LeftFoot
      {
        OFFSET 40.6238 0 0
        CHANNELS 3 Zrotation Xrotation Yrotation
        JOINT LeftToeBase
        {
          OFFSET 12.7242 0 0
          CHANNELS 3 Zrotation Xrotation Yrotation
          End Site
          {
            OFFSET 0 0 0
          }
        }
      }
    }
  }
  JOINT RightUpLeg
  {
    OFFSET -8.2249 1.95398 -2.59336
    CHANNELS 3 Zrotation Xrotation Yrotation
    JOINT RightLeg
    {
      OFFSET 43.5653 0 0
      CHANNELS 3 Zrotation Xrotation Yrotation
      JOINT RightFoot
      {
        OFFSET 40.6238 0 0
        CHANNELS 3 Zrotation Xrotation Yrotation
        JOINT RightToeBase
        {
          OFFSET 12.7242 0 0
          CHANNELS 3 Zrotation Xrotation Yrotation
          End Site
          {
            OFFSET 0 0 0
          }
        }
      }
    }
  }
  JOINT Spine
  {
    OFFSET 0.165834 0.87714 6.61349
    CHANNELS 3 Zrotation Xrotation Yrotation
    JOINT Spine1
    {
      OFFSET 7.38963 1.71661e-005 0
      CHANNELS 3 Zrotation Xrotation Yrotation
      JOINT Spine2
      {
        OFFSET 11.9445 1.14441e-005 0
        CHANNELS 3 Zrotation Xrotation Yrotation
        JOINT Spine3
        {
          OFFSET 14.7254 4.19617e-005 0
          CHANNELS 3 Zrotation Xrotation Yrotation
          JOINT Spine4
          {
            OFFSET 10.9679 0 0
            CHANNELS 3 Zrotation Xrotation Yrotation
            JOINT RightShoulder
            {
              OFFSET 2.46616 -1.6653 3.69651
              CHANNELS 3 Zrotation Xrotation Yrotation
              JOINT RightArm
              {
                OFFSET 13.0012 0 0
                CHANNELS 3 Zrotation Xrotation Yrotation
                JOINT RightForeArm
                {
                  OFFSET 28.7848 1.52588e-005 0
                  CHANNELS 3 Zrotation Xrotation Yrotation
                  JOINT RightHand
                  {
                    OFFSET 26.5688 1.52588e-005 0
                    CHANNELS 3 Zrotation Xrotation Yrotation
                    End Site
                    {
                      OFFSET 0 0 0
                    }
                  }
                }
              }
            }
            JOINT LeftShoulder
            {
              OFFSET 2.38034 -1.29275 -3.7523
              CHANNELS 3 Zrotation Xrotation Yrotation
              JOINT LeftArm
              {
                OFFSET 16.3182 6.10351e-005 0
                CHANNELS 3 Zrotation Xrotation Yrotation
                JOINT LeftForeArm
                {
                  OFFSET 27.0901 0 0
                  CHANNELS 3 Zrotation Xrotation Yrotation
                  JOINT LeftHand
                  {
                    OFFSET 24.5451 1.52588e-005 0
                    CHANNELS 3 Zrotation Xrotation Yrotation
                    End Site
                    {
                      OFFSET 0 0 0
                    }
                  }
                }
              }
            }
            JOINT Neck
            {
              OFFSET 5.0226 -0.0266342 0
              CHANNELS 3 Zrotation Xrotation Yrotation
              JOINT Head
              {
                OFFSET 6.69363 2.86102e-005 0
                CHANNELS 3 Zrotation Xrotation Yrotation
                End Site
                {
                  OFFSET 0 0 0
                }
              }
            }
          }
        }
      }
    }
  }
}
MOTION
Frames:	9
Frame Time:	0.0416667
-88.153 104.059 -134.367 93.4588 -35.9619 97.7014 -174.865 4.36639 92.8735 -23.6771 24.6252 2.30121 37.3596 -12.2203 -7.09551 26.9485 -2.46442 7.36304 161.639 56.2996 104.996 -100.372 -0.907356 -0.94024 48.6834 0.202437 0.314977 35.3369 0.353994 -4.10362 -0.980309 7.9123 -90.3759 11.0434 -2.12558 -0.542157 -0.625884 -2.14738 -0.448048 -23.1713 -1.86435 -1.1561 -3.15869 -1.86435 -1.1561 93.1864 -55.6964 -94.9874 19.5045 -3.76347 28.8563 -6.94344 -32.7585 -32.0162 5.87575 -0.168113 7.95222 -99.8082 -49.1389 63.9683 -15.777 5.39526 -4.1519 0.496505 -2.09855 -58.3529 21.2952 1.12362 1.40131 -2.51067 1.95749 -1.86113 10.1661 2.45611 2.90232 
-81.216 108.69 -128.177 94.3437 -33.3891 96.7647 -174.167 0.862319 91.9896 -16.5566 29.9075 1.08256 29.8954 -16.2932 -9.82224 23.5729 -4.93011 4.36412 162.707 57.9861 104.978 -96.0688 -2.00133 -0.58893 54.3661 -0.867363 -0.518915 34.8203 0.370958 -5.97683 -1.26217 7.8871 -90.2052 11.1002 -2.60754 -0.155779 -0.56813 -2.61189 -0.0407936 -23.1222 -2.4401 -0.932708 -3.10957 -2.44011 -0.932725 92.8688 -53.7661 -95.7621 24.2757 -1.94644 37.8201 -4.80165 -21.9708 -30.8009 1.70995 -0.303933 5.23838 -95.9474 -45.9484 68.6098 -13.9898 5.21166 -7.94007 3.59661 -1.84204 -70.9546 21.6578 0.855988 0.0751972 -4.04256 1.93804 -3.97707 10.6409 2.78272 4.28213 
-73.4701 110.645 -121.817 94.6031 -33.2301 95.6588 -173.555 -0.295556 90.1095 -8.0907 25.9208 0.412409 35.3336 -13.5662 -10.9315 28.6837 -1.15159 9.76875 168.174 55.7242 102.383 -87.6334 -3.35602 -0.344521 59.2721 -1.92536 -1.2106 32.9134 0.452192 -8.92463 -1.2402 7.83238 -90.1159 11.2116 -2.52216 0.0170857 -0.456928 -2.51897 0.128136 -23.0105 -2.41062 -0.742169 -2.99785 -2.41062 -0.74217 92.9471 -50.8844 -96.1365 28.124 -0.697403 42.4197 -4.59072 -19.3539 -29.6606 0.710547 -0.323072 4.31413 -94.9579 -45.1282 69.8651 -11.9501 1.10521 -9.77254 6.10023 -4.02818 -84.5767 18.9851 0.828202 0.50571 -2.7714 1.6437 -3.88654 9.86582 2.59627 5.11068 
-65.4274 109.26 -115.145 93.3888 -31.5376 93.7055 -172.993 2.83834 89.0724 -7.36265 15.1211 -1.02646 40.9665 -11.191 -9.32694 34.6324 4.37991 11.2317 170.918 51.8339 99.7841 -75.376 -2.10671 0.478772 60.348 -1.6472 -0.95755 38.4338 0.29672 -9.23108 -1.41365 7.65771 -90.0292 11.5645 -2.82589 0.232833 -0.103441 -2.8129 0.357068 -22.6625 -2.76513 -0.627901 -2.64989 -2.76512 -0.627907 92.8876 -49.9053 -96.4014 28.0994 -0.729724 44.1944 -6.28162 -22.0083 -30.2807 3.39794 -0.192991 5.29167 -94.9041 -45.3466 70.0193 -9.66491 -2.5711 -11.5148 5.99525 -3.93475 -94.291 23.3416 1.13201 0.980502 -0.900744 1.37987 -4.31511 7.65169 2.38029 5.47713 
-57.6585 103.922 -109.002 95.275 -31.0498 94.145 -172.384 1.22628 88.512 -7.40458 11.5069 -1.89021 38.9594 -11.5834 -8.42403 40.0507 9.53746 11.0813 173.444 45.4512 98.0308 -60.2161 -0.720809 1.01194 64.1862 -2.33655 -1.30898 42.2045 0.224388 -8.50535 -1.36843 7.7504 -89.996 11.3793 -2.72101 0.281703 -0.288898 -2.70599 0.401266 -22.8464 -2.6798 -0.54971 -2.83372 -2.67978 -0.549706 92.8518 -50.9223 -96.2746 25.2014 -1.33671 44.9981 -6.93658 -23.7614 -31.5174 5.47647 -0.0656456 6.1755 -95.1425 -45.3948 69.6658 -8.79245 -5.48612 -13.6666 5.28644 -3.71461 -104.338 27.3511 2.08522 3.78281 -0.841844 1.0605 -3.40822 7.85421 1.85745 4.31681 
-50.1693 96.0878 -102.86 97.0193 -30.1699 95.0455 -172.548 6.23293 87.728 -35.7432 16.2844 -0.686859 61.8955 4.35694 5.95185 44.303 11.9425 -1.72787 176.853 40.0707 96.4537 -43.0952 0.520475 -0.231278 67.4834 -3.21303 -1.73836 42.8625 0.194758 -8.66448 -1.315 7.87967 -90.0023 11.1199 -2.61865 0.249777 -0.54848 -2.6051 0.364858 -23.1043 -2.57257 -0.54932 -3.09161 -2.57256 -0.549323 93.0145 -54.3748 -95.4479 19.9747 -1.73284 43.5251 -6.48298 -24.1541 -31.0731 3.3648 -0.21741 6.58713 -95.9618 -45.7564 68.5234 -9.8094 -6.18923 -14.7796 5.37255 -4.02166 -111.627 31.0673 2.42551 3.99216 0.785006 0.376352 -2.93637 7.68707 1.04966 3.17529 
-41.7053 90.1694 -95.9895 95.5808 -29.942 91.3015 -172.512 0.358733 84.7952 -40.666 12.4814 -0.514051 74.9444 18.1252 13.9305 44.9723 12.9047 1.93529 -179.955 36.2847 92.3234 -24.9137 -0.767891 -3.20196 68.6582 -4.18431 -2.22061 43.4546 0.423409 -4.79533 -1.20898 7.767 -89.6523 11.3492 -2.24358 0.916378 -0.320227 -2.20107 1.01426 -22.8706 -2.41522 0.199361 -2.85795 -2.41522 0.199366 96.3339 -58.0802 -90.1952 16.3564 -0.327486 33.4539 -5.91749 -28.1553 -27.5735 -3.93882 -1.05968 11.4632 -99.3131 -49.6498 64.8759 -8.22159 -0.433192 -13.2888 8.6664 -7.15996 -111.211 30.1098 1.78365 2.05717 6.34722 -1.07188 -5.34051 3.74628 0.077503 3.52547 
-31.3678 88.603 -87.9156 94.4072 -30.5009 89.4793 -171.183 -5.36888 86.4671 -42.9269 18.02 -0.663768 69.604 12.5748 13.0611 52.6901 19.8883 5.24679 179.829 31.7352 91.0557 -16.5514 -4.70772 -4.06823 68.4328 -4.22878 -2.25137 45.8291 0.382019 -5.55252 -1.14481 7.49592 -89.6944 11.8873 -2.13257 0.835379 0.217741 -2.09375 0.928452 -22.331 -2.28501 0.155523 -2.31836 -2.28502 0.155514 97.8093 -58.5856 -88.0813 17.7457 0.109864 22.4337 -3.76278 -25.0212 -27.0463 -7.49057 -1.42127 11.1497 -102.495 -52.3122 61.3274 -13.6753 6.39769 -3.94874 12.6641 0.853514 -97.3761 26.1723 1.36819 1.36577 7.62989 -1.60979 -3.3371 1.72639 -0.85757 2.39913 
-19.6278 88.9932 -79.4553 90.1344 -31.0141 89.8201 -171.954 -5.45346 92.3053 -44.6526 23.7221 1.69072 51.9336 -4.46098 -1.60471 52.4146 22.4278 15.8841 176.855 35.7335 93.0748 -29.8363 -2.94664 -0.843462 63.3736 -1.88411 -1.00385 46.3319 0.113087 -8.9193 -1.14257 6.99393 -90.4536 12.8922 -2.48557 -0.595781 1.22361 -2.50937 -0.485753 -21.3269 -2.19156 -1.31556 -1.31427 -2.19155 -1.31555 97.3775 -59.0378 -88.6517 15.96 -3.62063 11.6566 1.20976 -18.5895 -32.1079 -6.57059 -0.763894 4.5699 -103.596 -53.4139 60.2251 -19.6056 12.1902 -0.329376 1.90279 -4.7931 -64.0974 26.6399 1.6771 2.45946 10.4546 -0.0451689 2.00278 -1.70507 -0.414249 2.34696 
